<?xml version="1.0" encoding="UTF-8"?>
<!DOCTYPE svg PUBLIC "-//W3C//DTD SVG 1.1//EN" "http://www.w3.org/Graphics/SVG/1.1/DTD/svg11.dtd">
<!-- Creator: CorelDRAW X7 -->
<svg xmlns="http://www.w3.org/2000/svg" xml:space="preserve" width="33.4616mm" height="5.1497mm" version="1.1" style="shape-rendering:geometricPrecision; text-rendering:geometricPrecision; image-rendering:optimizeQuality; fill-rule:evenodd; clip-rule:evenodd"
viewBox="0 0 3346 515"
 xmlns:xlink="http://www.w3.org/1999/xlink">
 <defs>
  <style type="text/css">
   <![CDATA[
    .fil1 {fill:#084F99;fill-rule:nonzero}
    .fil0 {fill:#F05921;fill-rule:nonzero}
   ]]>
  </style>
 </defs>
 <g id="Layer_x0020_1">
  <metadata id="CorelCorpID_0Corel-Layer"/>
  <g id="_630239304">
   <path class="fil0" d="M81 443c-64,-56 -81,-130 -81,-193 0,-45 14,-123 77,-180 47,-44 110,-70 207,-70 41,0 65,3 96,7 25,3 46,9 65,11 8,0 10,4 10,8 0,5 -2,13 -3,36 -1,21 -1,58 -2,71 -1,10 -2,15 -8,15 -5,0 -7,-5 -7,-15 0,-20 -9,-43 -25,-60 -22,-23 -73,-41 -133,-41 -58,0 -95,15 -124,41 -48,44 -60,106 -60,170 0,156 119,234 207,234 58,0 93,-7 120,-37 11,-12 19,-31 22,-43 2,-11 3,-13 9,-13 4,0 6,4 6,9 0,8 -8,65 -15,88 -3,11 -6,14 -17,19 -26,10 -76,15 -118,15 -90,0 -166,-20 -226,-72z"/>
   <path class="fil0" d="M596 372c-3,0 -4,1 -5,5l-28 71c-5,13 -8,26 -8,32 0,9 5,16 21,16l8 0c6,0 8,1 8,4 0,4 -4,5 -9,5 -17,0 -39,-1 -56,-1 -5,0 -34,1 -61,1 -7,0 -10,-1 -10,-5 0,-3 2,-4 6,-4 5,0 12,-1 16,-1 24,-3 34,-21 45,-47l131 -323c6,-15 9,-21 14,-21 5,0 8,5 13,17 13,28 96,237 129,316 20,47 35,54 46,57 8,1 16,2 22,2 4,0 7,1 7,4 0,4 -5,5 -24,5 -19,0 -57,0 -98,-1 -10,0 -16,0 -16,-4 0,-3 2,-4 7,-5 4,-1 7,-5 5,-12l-42 -107c-1,-3 -2,-4 -5,-4l-116 0zm106 -26l0 0c3,0 3,-1 3,-3l-47 -128c-1,-2 -1,-5 -3,-5 -1,0 -2,3 -3,5l-48 128c0,2 0,3 2,3l96 0z"/>
   <path class="fil0" d="M929 262c0,-79 0,-93 -1,-110 -1,-18 -5,-26 -22,-30 -4,-1 -13,-1 -20,-1 -6,0 -9,-1 -9,-5 0,-4 3,-5 11,-5 28,0 61,2 72,2 17,0 57,-2 73,-2 33,0 68,3 96,23 15,10 35,36 35,71 0,39 -16,74 -68,117 46,58 82,105 113,137 29,30 50,34 58,35 6,1 11,2 15,2 4,0 6,2 6,4 0,4 -4,5 -10,5l-49 0c-30,0 -43,-2 -56,-10 -23,-12 -42,-36 -72,-76 -20,-29 -44,-64 -51,-72 -3,-3 -6,-4 -10,-4l-45 -1c-3,0 -4,1 -4,4l0 8c0,48 0,89 2,111 2,15 5,27 21,29 8,1 19,2 25,2 5,0 7,2 7,4 0,4 -4,5 -11,5 -30,0 -69,-1 -76,-1 -10,0 -43,1 -64,1 -7,0 -11,-1 -11,-5 0,-2 3,-4 9,-4 8,0 14,-1 19,-2 10,-2 13,-14 15,-29 2,-22 2,-63 2,-111l0 -92zm62 42l0 0c0,5 1,7 5,9 10,4 26,5 39,5 21,0 28,-2 37,-9 16,-11 31,-35 31,-78 0,-74 -49,-95 -80,-95 -13,0 -22,0 -27,2 -4,1 -5,3 -5,7l0 159z"/>
   <path class="fil0" d="M1313 262c0,-79 0,-93 -2,-110 -1,-18 -5,-26 -22,-30 -4,-1 -13,-1 -20,-1 -6,0 -9,-1 -9,-5 0,-4 4,-5 11,-5 14,0 30,1 43,1 13,0 25,1 32,1 17,0 121,0 131,-1 10,-1 18,-2 22,-3 3,0 6,-2 8,-2 3,0 4,2 4,5 0,3 -3,10 -5,34 0,5 -1,28 -2,34 -1,3 -2,6 -5,6 -4,0 -5,-3 -5,-7 0,-4 -1,-13 -3,-19 -4,-10 -9,-16 -35,-19 -9,-1 -64,-2 -74,-2 -3,0 -4,1 -4,5l0 132c0,4 1,6 4,6 11,0 71,0 83,-1 13,-1 21,-3 25,-8 4,-4 6,-7 9,-7 2,0 3,1 3,4 0,3 -2,12 -4,38 0,11 -2,32 -2,35 0,4 0,10 -5,10 -3,0 -4,-2 -4,-5 -1,-5 -1,-12 -2,-18 -3,-11 -10,-19 -30,-21 -10,-1 -61,-1 -74,-1 -2,0 -3,2 -3,5l0 41c0,18 0,66 0,81 1,36 10,44 63,44 13,0 35,0 49,-6 13,-7 20,-18 23,-39 1,-6 2,-8 6,-8 4,0 4,4 4,10 0,12 -4,47 -7,57 -3,14 -8,14 -28,14 -39,0 -68,-1 -90,-2 -22,-1 -39,-1 -54,-1 -6,0 -17,0 -30,0 -12,0 -25,1 -36,1 -7,0 -10,-1 -10,-5 0,-2 2,-4 8,-4 8,0 14,-1 19,-2 10,-2 13,-14 15,-29 3,-22 3,-63 3,-111l0 -92z"/>
   <path class="fil0" d="M1632 262c0,-79 0,-93 -1,-110 -2,-18 -6,-26 -23,-30 -4,-1 -13,-1 -20,-1 -6,0 -9,-1 -9,-5 0,-4 4,-5 11,-5 14,0 30,1 43,1 13,0 25,1 32,1 17,0 121,0 131,-1 10,-1 18,-2 22,-3 3,0 6,-2 9,-2 2,0 3,2 3,5 0,3 -3,10 -5,34 0,5 -1,28 -2,34 -1,3 -2,6 -5,6 -4,0 -5,-3 -5,-7 0,-4 -1,-13 -3,-19 -4,-10 -9,-16 -35,-19 -9,-1 -64,-2 -74,-2 -3,0 -4,1 -4,5l0 132c0,4 1,6 4,6 11,0 71,0 83,-1 13,-1 21,-3 25,-8 4,-4 6,-7 9,-7 2,0 3,1 3,4 0,3 -2,12 -4,38 0,11 -2,32 -2,35 0,4 0,10 -5,10 -3,0 -4,-2 -4,-5 -1,-5 -1,-12 -2,-18 -3,-11 -10,-19 -30,-21 -10,-1 -61,-1 -74,-1 -2,0 -3,2 -3,5l0 41c0,18 0,66 0,81 1,36 10,44 63,44 13,0 35,0 49,-6 13,-7 20,-18 23,-39 1,-6 2,-8 6,-8 4,0 4,4 4,10 0,12 -4,47 -7,57 -3,14 -8,14 -28,14 -39,0 -68,-1 -90,-2 -22,-1 -39,-1 -54,-1 -6,0 -17,0 -30,0 -12,0 -25,1 -36,1 -7,0 -10,-1 -10,-5 0,-2 2,-4 8,-4 8,0 14,-1 19,-2 10,-2 13,-14 15,-29 3,-22 3,-63 3,-111l0 -92z"/>
   <path class="fil0" d="M1951 262c0,-79 0,-93 -1,-110 -1,-18 -6,-26 -23,-30 -4,-1 -13,-1 -20,-1 -6,0 -9,-1 -9,-5 0,-4 4,-5 11,-5 28,0 61,2 72,2 18,0 57,-2 73,-2 33,0 68,3 96,23 15,10 36,36 36,71 0,39 -16,74 -69,117 46,58 82,105 113,137 29,30 51,34 58,35 6,1 11,2 15,2 4,0 6,2 6,4 0,4 -3,5 -10,5l-49 0c-29,0 -42,-2 -56,-10 -22,-12 -42,-36 -71,-76 -21,-29 -45,-64 -52,-72 -3,-3 -6,-4 -9,-4l-46 -1c-2,0 -4,1 -4,4l0 8c0,48 0,89 3,111 1,15 4,27 20,29 8,1 19,2 26,2 4,0 6,2 6,4 0,4 -4,5 -11,5 -30,0 -68,-1 -76,-1 -10,0 -43,1 -64,1 -7,0 -10,-1 -10,-5 0,-2 2,-4 8,-4 8,0 14,-1 19,-2 10,-2 13,-14 15,-29 3,-22 3,-63 3,-111l0 -92zm61 42l0 0c0,5 1,7 5,9 11,4 26,5 39,5 21,0 28,-2 37,-9 16,-11 31,-35 31,-78 0,-74 -49,-95 -80,-95 -13,0 -22,0 -27,2 -4,1 -5,3 -5,7l0 159z"/>
   <path class="fil1" d="M2334 262c0,-79 0,-93 -1,-110 -1,-18 -5,-26 -23,-30 -4,-1 -13,-1 -20,-1 -6,0 -9,-1 -9,-5 0,-4 4,-5 12,-5 14,0 29,1 42,1 13,0 25,1 33,1 16,0 120,0 130,-1 10,-1 18,-2 22,-3 3,0 6,-2 9,-2 2,0 3,2 3,5 0,3 -3,10 -4,34 -1,5 -2,28 -3,34 0,3 -1,6 -5,6 -4,0 -5,-3 -5,-7 0,-4 0,-13 -3,-19 -4,-10 -9,-16 -35,-19 -9,-1 -63,-2 -74,-2 -3,0 -4,1 -4,5l0 132c0,4 1,6 4,6 12,0 72,0 84,-1 12,-1 20,-3 25,-8 3,-4 5,-7 8,-7 2,0 4,1 4,4 0,3 -3,12 -5,38 0,11 -2,32 -2,35 0,4 0,10 -4,10 -4,0 -5,-2 -5,-5 -1,-5 -1,-12 -2,-18 -3,-11 -10,-19 -29,-21 -10,-1 -62,-1 -74,-1 -3,0 -4,2 -4,5l0 41c0,18 0,66 0,81 1,36 10,44 63,44 14,0 35,0 49,-6 14,-7 20,-18 23,-39 2,-6 3,-8 6,-8 4,0 4,4 4,10 0,12 -4,47 -6,57 -4,14 -9,14 -29,14 -39,0 -67,-1 -90,-2 -22,-1 -38,-1 -54,-1 -6,0 -17,0 -30,0 -12,0 -25,1 -36,1 -6,0 -10,-1 -10,-5 0,-2 2,-4 8,-4 8,0 14,-1 19,-2 10,-2 13,-14 15,-29 3,-22 3,-63 3,-111l0 -92z"/>
   <path class="fil1" d="M2653 262c0,-79 0,-93 -1,-110 -1,-18 -5,-26 -23,-30 -4,-1 -13,-1 -20,-1 -6,0 -9,-1 -9,-5 0,-4 4,-5 12,-5 27,0 60,2 71,2 18,0 57,-2 74,-2 32,0 67,3 95,23 15,10 36,36 36,71 0,39 -16,74 -69,117 47,58 82,105 113,137 29,30 51,34 59,35 5,1 10,2 14,2 4,0 6,2 6,4 0,4 -3,5 -9,5l-50 0c-29,0 -42,-2 -56,-10 -22,-12 -42,-36 -71,-76 -21,-29 -45,-64 -52,-72 -2,-3 -6,-4 -9,-4l-46 -1c-2,0 -4,1 -4,4l0 8c0,48 0,89 3,111 1,15 5,27 20,29 8,1 20,2 26,2 4,0 6,2 6,4 0,4 -4,5 -10,5 -31,0 -69,-1 -77,-1 -10,0 -43,1 -64,1 -6,0 -10,-1 -10,-5 0,-2 2,-4 8,-4 8,0 14,-1 19,-2 11,-2 13,-14 15,-29 3,-22 3,-63 3,-111l0 -92zm61 42l0 0c0,5 1,7 5,9 11,4 27,5 40,5 20,0 27,-2 37,-9 15,-11 30,-35 30,-78 0,-74 -49,-95 -79,-95 -13,0 -23,0 -28,2 -4,1 -5,3 -5,7l0 159z"/>
   <path class="fil1" d="M3057 372c-3,0 -4,1 -5,5l-28 71c-5,13 -8,26 -8,32 0,9 5,16 21,16l8 0c6,0 8,1 8,4 0,4 -3,5 -9,5 -17,0 -39,-1 -55,-1 -6,0 -35,1 -62,1 -7,0 -10,-1 -10,-5 0,-3 2,-4 6,-4 5,0 12,-1 17,-1 24,-3 33,-21 44,-47l131 -323c6,-15 9,-21 14,-21 5,0 8,5 13,17 13,28 96,237 130,316 19,47 35,54 45,57 8,1 16,2 22,2 5,0 7,1 7,4 0,4 -5,5 -24,5 -19,0 -57,0 -98,-1 -10,0 -16,0 -16,-4 0,-3 2,-4 7,-5 4,-1 8,-5 5,-12l-42 -107c-1,-3 -2,-4 -5,-4l-116 0zm106 -26l0 0c3,0 3,-1 3,-3l-47 -128c-1,-2 -1,-5 -3,-5 -1,0 -2,3 -3,5l-48 128c0,2 0,3 2,3l96 0z"/>
  </g>
 </g>
</svg>
