<?xml version="1.0" encoding="UTF-8"?>
<!DOCTYPE svg PUBLIC "-//W3C//DTD SVG 1.1//EN" "http://www.w3.org/Graphics/SVG/1.1/DTD/svg11.dtd">
<!-- Creator: CorelDRAW X7 -->
<svg xmlns="http://www.w3.org/2000/svg" xml:space="preserve" width="808px" height="302px" version="1.1" style="shape-rendering:geometricPrecision; text-rendering:geometricPrecision; image-rendering:optimizeQuality; fill-rule:evenodd; clip-rule:evenodd"
viewBox="0 0 826 309"
 xmlns:xlink="http://www.w3.org/1999/xlink">
 <defs>
  <style type="text/css">
   <![CDATA[
    .str0 {stroke:black;stroke-width:0.920554}
    .fil4 {fill:none;fill-rule:nonzero}
    .fil5 {fill:black;fill-rule:nonzero}
    .fil0 {fill:#084F99;fill-rule:nonzero}
    .fil3 {fill:#08991B;fill-rule:nonzero}
    .fil2 {fill:#EC0721;fill-rule:nonzero}
    .fil1 {fill:#F05921;fill-rule:nonzero}
   ]]>
  </style>
 </defs>
 <g id="Layer_x0020_1">
  <metadata id="CorelCorpID_0Corel-Layer"/>
  <g id="_616584784">
   <polygon class="fil0" points="199,228 96,215 28,309 "/>
   <g>
    <path class="fil1" d="M205 222c-12,-10 -15,-24 -15,-35 0,-9 2,-23 14,-34 9,-8 20,-13 38,-13 8,0 12,1 18,2 4,0 8,1 12,2 1,0 2,0 2,1 0,1 -1,3 -1,7 0,4 0,11 0,13 0,2 -1,3 -2,3 -1,0 -1,-1 -1,-3 0,-4 -2,-8 -5,-11 -4,-4 -13,-8 -24,-8 -11,0 -18,3 -23,8 -9,8 -11,20 -11,31 0,29 22,44 38,44 11,0 17,-2 22,-7 2,-3 4,-6 4,-8 1,-2 1,-3 2,-3 1,0 1,1 1,2 0,2 -1,12 -3,16 0,2 -1,3 -3,4 -5,2 -14,3 -22,3 -16,0 -30,-4 -41,-14z"/>
    <path class="fil1" d="M300 209c-1,0 -1,0 -1,1l-5 13c-1,3 -2,5 -2,6 0,2 1,3 4,3l2 0c1,0 1,0 1,1 0,1 -1,1 -2,1 -3,0 -7,0 -10,0 -1,0 -6,0 -11,0 -1,0 -2,0 -2,-1 0,-1 0,-1 1,-1 1,0 2,0 3,0 5,-1 6,-4 8,-9l24 -60c2,-2 2,-3 3,-3 1,0 2,1 3,3 2,5 17,44 23,58 4,9 7,10 9,11 1,0 3,0 4,0 1,0 1,0 1,1 0,1 -1,1 -4,1 -4,0 -11,0 -18,0 -2,0 -3,0 -3,-1 0,-1 0,-1 1,-1 1,0 1,-1 1,-2l-8 -20c0,-1 0,-1 -1,-1l-21 0zm19 -5l0 0c1,0 1,0 1,0l-9 -24c0,0 0,-1 0,-1 -1,0 -1,1 -1,1l-9 24c0,0 0,0 1,0l17 0z"/>
    <path class="fil1" d="M361 189c0,-15 0,-17 0,-20 0,-4 -1,-5 -4,-6 -1,0 -2,0 -4,0 -1,0 -1,0 -1,-1 0,-1 0,-1 2,-1 5,0 11,0 13,0 3,0 11,0 14,0 6,0 12,1 17,4 3,2 7,7 7,13 0,7 -3,14 -13,22 9,11 15,19 21,25 5,6 9,6 11,7 1,0 2,0 3,0 0,0 1,0 1,1 0,1 -1,1 -2,1l-9 0c-6,0 -8,-1 -11,-2 -4,-2 -7,-7 -13,-14 -4,-5 -8,-12 -9,-13 -1,-1 -1,-1 -2,-1l-8 0c-1,0 -1,0 -1,0l0 2c0,9 0,16 0,20 1,3 1,5 4,6 1,0 4,0 5,0 1,0 1,0 1,1 0,1 -1,1 -2,1 -6,0 -13,0 -14,0 -2,0 -8,0 -12,0 -1,0 -2,0 -2,-1 0,-1 1,-1 2,-1 1,0 2,0 3,0 2,-1 3,-3 3,-6 0,-4 0,-11 0,-20l0 -17zm12 8l0 0c0,1 0,1 1,1 2,1 5,1 7,1 4,0 5,0 7,-1 3,-3 6,-7 6,-15 0,-14 -10,-17 -15,-17 -3,0 -4,0 -5,0 -1,0 -1,0 -1,1l0 30z"/>
    <path class="fil1" d="M432 189c0,-15 0,-17 0,-20 0,-4 -1,-5 -4,-6 -1,0 -3,0 -4,0 -1,0 -1,0 -1,-1 0,-1 0,-1 2,-1 2,0 5,0 7,0 3,0 5,0 6,0 4,0 23,0 25,0 1,0 3,0 4,0 0,0 1,-1 1,-1 1,0 1,1 1,1 0,1 -1,2 -1,6 0,1 0,6 0,7 -1,0 -1,1 -1,1 -1,0 -1,-1 -1,-2 0,0 0,-2 -1,-3 0,-2 -1,-3 -6,-4 -2,0 -12,0 -14,0 0,0 -1,0 -1,1l0 24c0,1 0,1 1,1 2,0 13,0 15,0 3,0 4,0 5,-1 1,-1 1,-1 2,-1 0,0 0,0 0,0 0,1 0,2 0,7 -1,2 -1,6 -1,7 0,1 0,2 -1,2 0,0 -1,-1 -1,-1 0,-1 0,-2 0,-4 0,-2 -2,-3 -5,-3 -2,-1 -12,-1 -14,-1 -1,0 -1,1 -1,1l0 8c0,3 0,12 0,15 1,6 2,8 12,8 2,0 6,0 9,-1 2,-1 4,-3 4,-7 1,-1 1,-2 1,-2 1,0 1,1 1,2 0,2 -1,9 -1,11 -1,2 -2,2 -5,2 -8,0 -13,0 -17,0 -4,0 -7,0 -10,0 -1,0 -3,0 -5,0 -3,0 -5,0 -7,0 -1,0 -2,0 -2,-1 0,-1 0,-1 1,-1 2,0 3,0 4,0 2,-1 2,-3 3,-6 0,-4 0,-11 0,-20l0 -17z"/>
    <path class="fil1" d="M491 189c0,-15 0,-17 0,-20 0,-4 -1,-5 -4,-6 -1,0 -3,0 -4,0 -1,0 -2,0 -2,-1 0,-1 1,-1 3,-1 2,0 5,0 7,0 3,0 5,0 6,0 4,0 23,0 25,0 1,0 3,0 4,0 0,0 1,-1 1,-1 1,0 1,1 1,1 0,1 -1,2 -1,6 0,1 0,6 0,7 -1,0 -1,1 -1,1 -1,0 -1,-1 -1,-2 0,0 0,-2 -1,-3 -1,-2 -2,-3 -6,-4 -2,0 -12,0 -14,0 0,0 -1,0 -1,1l0 24c0,1 0,1 1,1 2,0 13,0 15,0 3,0 4,0 5,-1 1,-1 1,-1 2,-1 0,0 0,0 0,0 0,1 0,2 -1,7 0,2 0,6 0,7 0,1 0,2 -1,2 0,0 -1,-1 -1,-1 0,-1 0,-2 0,-4 -1,-2 -2,-3 -5,-3 -2,-1 -12,-1 -14,-1 -1,0 -1,1 -1,1l0 8c0,3 0,12 0,15 1,6 2,8 12,8 2,0 6,0 9,-1 2,-1 4,-3 4,-7 0,-1 1,-2 1,-2 1,0 1,1 1,2 0,2 -1,9 -1,11 -1,2 -2,2 -5,2 -8,0 -13,0 -17,0 -4,0 -7,0 -10,0 -1,0 -3,0 -6,0 -2,0 -4,0 -6,0 -1,0 -2,0 -2,-1 0,-1 0,-1 1,-1 2,0 3,0 4,0 2,-1 2,-3 3,-6 0,-4 0,-11 0,-20l0 -17z"/>
    <path class="fil1" d="M550 189c0,-15 0,-17 0,-20 0,-4 -1,-5 -4,-6 -1,0 -3,0 -4,0 -1,0 -2,0 -2,-1 0,-1 1,-1 3,-1 5,0 11,0 13,0 3,0 10,0 13,0 6,0 13,1 18,4 3,2 7,7 7,13 0,7 -3,14 -13,22 8,11 15,19 21,25 5,6 9,6 11,7 1,0 1,0 2,0 1,0 1,0 1,1 0,1 0,1 -1,1l-10 0c-5,0 -7,-1 -10,-2 -4,-2 -8,-7 -13,-14 -4,-5 -8,-12 -10,-13 0,-1 -1,-1 -1,-1l-9 0c0,0 0,0 0,0l0 2c0,9 0,16 0,20 0,3 1,5 4,6 1,0 3,0 4,0 1,0 2,0 2,1 0,1 -1,1 -2,1 -6,0 -13,0 -14,0 -2,0 -8,0 -12,0 -1,0 -2,0 -2,-1 0,-1 0,-1 1,-1 2,0 3,0 4,0 2,-1 2,-3 3,-6 0,-4 0,-11 0,-20l0 -17zm12 8l0 0c0,1 0,1 0,1 2,1 5,1 8,1 4,0 5,0 7,-1 2,-3 5,-7 5,-15 0,-14 -9,-17 -15,-17 -2,0 -4,0 -5,0 0,0 0,0 0,1l0 30z"/>
    <path class="fil0" d="M621 189c0,-15 0,-17 0,-20 0,-4 -1,-5 -4,-6 -1,0 -3,0 -4,0 -1,0 -2,0 -2,-1 0,-1 1,-1 2,-1 3,0 6,0 8,0 3,0 5,0 6,0 3,0 22,0 24,0 2,0 4,0 4,0 1,0 1,-1 2,-1 0,0 1,1 1,1 0,1 -1,2 -1,6 0,1 -1,6 -1,7 0,0 0,1 -1,1 0,0 -1,-1 -1,-2 0,0 0,-2 0,-3 -1,-2 -2,-3 -7,-4 -1,0 -11,0 -13,0 -1,0 -1,0 -1,1l0 24c0,1 0,1 1,1 2,0 13,0 15,0 2,0 4,0 5,-1 0,-1 1,-1 1,-1 1,0 1,0 1,0 0,1 0,2 -1,7 0,2 0,6 0,7 0,1 0,2 -1,2 -1,0 -1,-1 -1,-1 0,-1 0,-2 0,-4 -1,-2 -2,-3 -6,-3 -2,-1 -11,-1 -13,-1 -1,0 -1,1 -1,1l0 8c0,3 0,12 0,15 0,6 2,8 12,8 2,0 6,0 9,-1 2,-1 3,-3 4,-7 0,-1 0,-2 1,-2 1,0 1,1 1,2 0,2 -1,9 -1,11 -1,2 -2,2 -6,2 -7,0 -12,0 -16,0 -4,0 -7,0 -10,0 -1,0 -3,0 -6,0 -2,0 -4,0 -6,0 -2,0 -2,0 -2,-1 0,-1 0,-1 1,-1 2,0 3,0 4,0 2,-1 2,-3 2,-6 1,-4 1,-11 1,-20l0 -17z"/>
    <path class="fil0" d="M680 189c0,-15 0,-17 0,-20 0,-4 -1,-5 -4,-6 -1,0 -3,0 -4,0 -1,0 -2,0 -2,-1 0,-1 1,-1 2,-1 5,0 11,0 13,0 4,0 11,0 14,0 6,0 13,1 18,4 2,2 6,7 6,13 0,7 -3,14 -12,22 8,11 15,19 21,25 5,6 9,6 10,7 1,0 2,0 3,0 1,0 1,0 1,1 0,1 -1,1 -2,1l-9 0c-5,0 -8,-1 -10,-2 -4,-2 -8,-7 -13,-14 -4,-5 -9,-12 -10,-13 0,-1 -1,-1 -2,-1l-8 0c0,0 -1,0 -1,0l0 2c0,9 0,16 1,20 0,3 1,5 3,6 2,0 4,0 5,0 1,0 1,0 1,1 0,1 0,1 -2,1 -5,0 -12,0 -14,0 -2,0 -8,0 -11,0 -2,0 -2,0 -2,-1 0,-1 0,-1 1,-1 2,0 3,0 4,0 2,-1 2,-3 2,-6 1,-4 1,-11 1,-20l0 -17zm11 8l0 0c0,1 0,1 1,1 2,1 5,1 7,1 4,0 6,0 7,-1 3,-3 6,-7 6,-15 0,-14 -9,-17 -15,-17 -2,0 -4,0 -5,0 -1,0 -1,0 -1,1l0 30z"/>
    <path class="fil0" d="M755 209c-1,0 -1,0 -1,1l-6 13c0,3 -1,5 -1,6 0,2 1,3 4,3l1 0c1,0 2,0 2,1 0,1 -1,1 -2,1 -3,0 -7,0 -10,0 -1,0 -6,0 -11,0 -2,0 -2,0 -2,-1 0,-1 0,-1 1,-1 1,0 2,0 3,0 4,-1 6,-4 8,-9l24 -60c1,-2 2,-3 3,-3 1,0 1,1 2,3 3,5 18,44 24,58 4,9 7,10 9,11 1,0 3,0 4,0 1,0 1,0 1,1 0,1 -1,1 -4,1 -4,0 -11,0 -19,0 -1,0 -3,0 -3,-1 0,-1 1,-1 2,-1 0,0 1,-1 1,-2l-8 -20c0,-1 0,-1 -1,-1l-21 0zm19 -5l0 0c1,0 1,0 1,0l-9 -24c0,0 0,-1 0,-1 -1,0 -1,1 -1,1l-9 24c0,0 0,0 0,0l18 0z"/>
    <polygon class="fil1" points="183,171 199,64 114,0 "/>
    <polygon class="fil2" points="173,190 134,94 32,81 "/>
    <polygon class="fil3" points="183,215 103,155 0,194 "/>
    <path class="fil4 str0" d="M826 140c0,13 -11,23 -24,23 -13,0 -23,-10 -23,-23 0,-13 10,-24 23,-24 13,0 24,11 24,24"/>
    <path class="fil5" d="M799 138l4 0c2,0 3,0 3,-1 1,0 1,-1 1,-3 0,-1 0,-2 -1,-2 0,-1 -1,-1 -3,-1l-4 0 0 7zm-5 15l0 -26 9 0c3,0 5,0 7,2 2,1 2,3 2,6 0,1 0,3 -1,4 -1,1 -2,2 -3,2l5 12 -5 0 -5 -11 -4 0 0 11 -5 0z"/>
   </g>
  </g>
 </g>
</svg>
